<?xml version="1.0" encoding="UTF-8"?>
<svg width="22px" height="24px" viewBox="0 0 22 24" xmlns="http://www.w3.org/2000/svg" xmlns:xlink="http://www.w3.org/1999/xlink" version="1.1">
 <!-- Generated by Pixelmator Pro 2.0.3 -->
 <g id="g5193">
  <path id="path5113" d="M2.844 21.452 L0.988 1.015 20.988 1.023 19.147 21.436 10.972 23.745 Z M17.642 20.336 L19.194 2.832 11.004 2.832 11.066 22.138 Z M10.239 5.399 L8.25 5.399 8.227 15.875 4.366 14.822 4.373 17.216 10.239 18.8 Z" fill="#d4b830" fill-opacity="1" stroke="none"/>
  <path id="path5159" d="M9.584 18.605 C9.327 18.527 8.055 18.183 6.76 17.832 L4.412 17.201 4.412 16.023 C4.412 14.868 4.412 14.845 4.529 14.884 4.592 14.907 5.45 15.141 6.433 15.414 L8.219 15.906 8.234 10.68 8.25 5.453 10.2 5.453 10.2 12.099 C10.2 17.38 10.185 18.745 10.13 18.745 10.091 18.737 9.841 18.675 9.584 18.605 Z" fill="none" stroke="none"/>
  <path id="path5157" d="M4.373 17.216 L4.366 14.822 C4.366 14.822 6.83 15.516 8.227 15.875 L8.25 5.407 10.239 5.407 10.239 18.8 Z" fill="#ebebeb" fill-opacity="1" stroke="none"/>
  <path id="path5117" d="M11.004 2.825 L19.194 2.825 17.642 20.329 11.004 22.13 Z M17.22 17.396 L17.759 10.851 13.781 11.296 13.781 7.801 18.024 7.786 18.195 5.399 11.791 5.43 11.877 14.12 15.746 13.456 15.692 15.391 11.791 16.428 11.83 18.8 Z" fill="#fdd83c" fill-opacity="1" stroke="none"/>
 </g>
</svg>
