<?xml version="1.0" encoding="UTF-8"?>
<svg width="24px" height="24px" viewBox="0 0 24 24" xmlns="http://www.w3.org/2000/svg" xmlns:xlink="http://www.w3.org/1999/xlink" version="1.1">
 <!-- Generated by Pixelmator Pro 2.0.3 -->
 <path id="Путь" d="M23.544 10.93 L13.067 0.452 C12.777 0.162 12.384 -0.001 11.974 -0.001 11.564 -0.001 11.171 0.162 10.881 0.452 L8.705 2.628 11.465 5.388 C12.129 5.162 12.864 5.334 13.358 5.832 13.852 6.33 14.02 7.065 13.789 7.728 L16.446 10.385 C17.264 10.104 18.168 10.432 18.615 11.173 19.062 11.913 18.932 12.866 18.302 13.459 17.672 14.052 16.713 14.125 16.001 13.634 15.288 13.143 15.015 12.222 15.345 11.422 L12.864 8.941 12.864 15.469 C13.638 15.853 14.04 16.725 13.828 17.563 13.616 18.401 12.848 18.977 11.985 18.947 11.121 18.916 10.395 18.287 10.243 17.437 10.09 16.586 10.552 15.744 11.352 15.416 L11.352 8.827 C10.899 8.641 10.538 8.282 10.351 7.829 10.163 7.377 10.164 6.868 10.353 6.416 L7.637 3.697 0.452 10.884 C0.162 11.174 -0.002 11.567 -0.002 11.978 -0.002 12.388 0.162 12.781 0.452 13.071 L10.929 23.545 C11.219 23.835 11.612 23.999 12.022 23.999 12.432 23.999 12.825 23.835 13.115 23.545 L23.544 13.113 C23.835 12.823 23.998 12.43 23.998 12.02 23.998 11.609 23.835 11.216 23.544 10.926" fill="#dd4c35" fill-opacity="1" stroke="none"/>
 <path id="Путь-1" d="M8.862 3.067 L11.316 5.604 C11.907 5.396 12.56 5.554 13 6.012 13.439 6.469 13.588 7.145 13.384 7.754 L15.747 10.196 C16.474 9.938 17.278 10.239 17.676 10.92 18.074 11.601 17.958 12.477 17.397 13.022 16.837 13.567 15.984 13.634 15.351 13.183 14.717 12.732 14.474 11.885 14.767 11.149 L12.56 8.869 12.56 14.869 C13.249 15.222 13.606 16.023 13.418 16.794 13.23 17.564 12.547 18.094 11.778 18.066 11.01 18.038 10.365 17.46 10.229 16.678 10.094 15.896 10.504 15.122 11.216 14.82 L11.216 8.765 C10.812 8.594 10.492 8.264 10.325 7.847 10.158 7.431 10.159 6.964 10.327 6.548 L7.911 4.049" fill="#ffffff" fill-opacity="1" stroke="none"/>
</svg>
