<?xml version="1.0" encoding="UTF-8"?>
<svg width="33px" height="18px" viewBox="0 0 33 18" xmlns="http://www.w3.org/2000/svg" xmlns:xlink="http://www.w3.org/1999/xlink" version="1.1">
 <!-- Generated by Pixelmator Pro 2.0.3 -->
 <path id="Путь" d="M9.639 6.548 L8.341 6.548 7.633 10.189 8.785 10.189 C9.549 10.189 10.119 10.044 10.493 9.757 10.867 9.468 11.118 8.988 11.249 8.314 11.375 7.668 11.318 7.212 11.078 6.946 10.838 6.681 10.359 6.548 9.639 6.548 Z M16.5 0.334 C7.388 0.334 0 4.22 0 9.013 0 13.806 7.388 17.693 16.5 17.693 25.612 17.693 33 13.806 33 9.013 33 4.22 25.612 0.334 16.5 0.334 Z M12.017 10.579 C11.659 10.923 11.227 11.181 10.757 11.337 10.295 11.485 9.705 11.562 8.99 11.562 L7.366 11.562 6.916 13.874 5.021 13.874 6.713 5.175 10.356 5.175 C11.452 5.175 12.251 5.463 12.754 6.039 13.258 6.614 13.409 7.417 13.208 8.448 13.124 8.886 12.978 9.276 12.779 9.632 L12.789 9.612 C12.592 9.963 12.335 10.286 12.017 10.579 Z M17.55 11.562 L18.297 7.714 C18.384 7.276 18.351 6.977 18.204 6.818 18.056 6.659 17.742 6.579 17.259 6.579 L15.758 6.579 14.79 11.564 12.909 11.564 14.6 2.864 16.479 2.864 16.03 5.177 17.705 5.177 C18.759 5.177 19.485 5.361 19.885 5.728 20.285 6.095 20.405 6.69 20.247 7.514 L19.46 11.562 Z M27.996 8.448 C27.914 8.886 27.768 9.276 27.567 9.631 L27.577 9.612 C27.38 9.963 27.123 10.286 26.806 10.579 26.457 10.912 26.036 11.171 25.568 11.33 L25.545 11.337 C25.083 11.485 24.493 11.562 23.777 11.562 L22.154 11.562 21.704 13.875 19.81 13.875 21.501 5.177 25.143 5.177 C26.239 5.177 27.038 5.464 27.541 6.04 28.045 6.614 28.197 7.417 27.997 8.448 Z M24.428 6.548 L23.132 6.548 22.422 10.189 23.574 10.189 C24.34 10.189 24.909 10.044 25.282 9.757 25.656 9.468 25.908 8.988 26.04 8.314 26.166 7.668 26.107 7.212 25.868 6.946 25.629 6.681 25.147 6.548 24.428 6.548 Z" fill="#777bb4" fill-opacity="1" stroke="none"/>
</svg>
